<?xml version="1.0" encoding="UTF-8"?>
<svg id="Layer_1" data-name="Layer 1" xmlns="http://www.w3.org/2000/svg" viewBox="0 0 723.63 643.23">
  <rect x="160.8" width="80.4" height="80.4"/>
  <rect x="482.43" width="80.4" height="80.4"/>
  <rect x="80.4" y="80.4" width="80.4" height="80.4"/>
  <rect x="241.21" y="80.4" width="80.4" height="80.4"/>
  <rect x="402.02" y="80.4" width="80.4" height="80.4"/>
  <rect x="562.83" y="80.4" width="80.4" height="80.4"/>
  <rect y="160.8" width="80.4" height="160.82"/>
  <rect x="321.61" y="160.8" width="80.42" height="80.4"/>
  <rect x="643.23" y="160.8" width="80.4" height="160.82"/>
  <rect x="80.4" y="321.62" width="80.4" height="80.4"/>
  <rect x="562.83" y="321.62" width="80.4" height="80.4"/>
  <rect x="160.8" y="402.02" width="80.4" height="80.4"/>
  <rect x="482.43" y="402.02" width="80.4" height="80.4"/>
  <rect x="241.21" y="482.43" width="80.4" height="80.4"/>
  <rect x="402.02" y="482.43" width="80.4" height="80.4"/>
  <rect x="321.61" y="562.83" width="80.42" height="80.4"/>
</svg>